<?xml version="1.0" encoding="UTF-8" standalone="no"?>
<!-- Created with Inkscape (http://www.inkscape.org/) -->

<svg
   xmlns:dc="http://purl.org/dc/elements/1.1/"
   xmlns:cc="http://creativecommons.org/ns#"
   xmlns:rdf="http://www.w3.org/1999/02/22-rdf-syntax-ns#"
   xmlns:svg="http://www.w3.org/2000/svg"
   xmlns="http://www.w3.org/2000/svg"
   version="1.1"
   width="77.51825"
   height="90"
   id="svg4141">
  <defs
     id="defs4143" />
  <metadata
     id="metadata3064">
    <rdf:RDF>
      <cc:Work
         rdf:about="">
        <dc:title></dc:title>
        <dc:description>This is my vectorized portrait that I use on my websites and profiles.</dc:description>
        <dc:subject>
          <rdf:Bag>
            <rdf:li>Jakub</rdf:li>
            <rdf:li>Jankiewicz</rdf:li>
            <rdf:li>Kuba</rdf:li>
            <rdf:li>jcubic</rdf:li>
            <rdf:li>portrait</rdf:li>
            <rdf:li>stripes</rdf:li>
            <rdf:li>vectorized</rdf:li>
            <rdf:li>Poland</rdf:li>
            <rdf:li>people</rdf:li>
            <rdf:li>face</rdf:li>
            <rdf:li>head</rdf:li>
            <rdf:li>man</rdf:li>
            <rdf:li>avatar</rdf:li>
            <rdf:li>colour</rdf:li>
          </rdf:Bag>
        </dc:subject>
        <dc:publisher>
          <cc:Agent
             rdf:about="http://www.openclipart.org">
            <dc:title>Open Clip Art Library</dc:title>
          </cc:Agent>
        </dc:publisher>
        <dc:creator>
          <cc:Agent>
            <dc:title>Jakub Jankiewicz</dc:title>
          </cc:Agent>
        </dc:creator>
        <dc:rights>
          <cc:Agent>
            <dc:title>Jakub Jankiewicz</dc:title>
          </cc:Agent>
        </dc:rights>
        <dc:date />
        <dc:format>image/svg+xml</dc:format>
        <dc:type
           rdf:resource="http://purl.org/dc/dcmitype/StillImage" />
        <cc:license
           rdf:resource="http://web.resource.org/cc/PublicDomain" />
        <dc:language>pl</dc:language>
      </cc:Work>
      <cc:License
         rdf:about="http://web.resource.org/cc/PublicDomain">
        <cc:permits
           rdf:resource="http://web.resource.org/cc/Reproduction" />
        <cc:permits
           rdf:resource="http://web.resource.org/cc/Distribution" />
        <cc:permits
           rdf:resource="http://web.resource.org/cc/DerivativeWorks" />
      </cc:License>
    </rdf:RDF>
  </metadata>
  <rect
     width="77.51825"
     height="90"
     rx="0"
     ry="0"
     x="0"
     y="0"
     id="rect4371"
     style="color:#000000;fill:#d7e3f4;stroke:none;stroke-width:3.10519528;marker:none;visibility:visible;display:inline;overflow:visible;enable-background:accumulate" />
  <path
     d="m 22.500001,70.620434 c 0,0 -11.292498,3.031992 -20.0364964,7.554744 -1.1906937,0.615875 -1.94771571,0.716203 -2.50456217,1.642335 C -0.02308652,82.385981 -0.13967406,90.262845 6.42179e-7,90.12317 L 77.600366,90.041053 c 0.0032,-2.422445 0.09574,-10.390669 0,-11.578466 C 76.97087,77.562199 76.861315,77.518244 76.040147,77.025543 75.218979,76.532842 51.405111,69.306565 51.405111,69.306565 z"
     id="path3156"
     style="opacity:0.77570095;fill:#87aade;fill-opacity:1;stroke:none" />
  <path
     d="m 55.036668,48.965976 c 0.03746,-0.102385 0.08165,-0.138756 0.113114,-0.234066 0.05256,-0.163852 0.07201,-0.33656 0.101839,-0.508868 0.04092,-0.235594 0.08729,-0.471788 0.127299,-0.712419 0.04237,-0.253471 0.07492,-0.518452 0.127299,-0.763321 0.05237,-0.24485 0.120206,-0.469914 0.203551,-0.686977 0.119843,-0.313483 0.219845,-0.595086 0.305335,-0.865087 0.137119,-0.433125 0.266528,-0.952795 0.356219,-1.501163 0.06747,-0.405865 0.12839,-0.838972 0.05092,-1.272188 -0.04346,-0.269837 -0.06583,-0.505595 -0.316992,-0.647769 -0.09347,-0.04819 -0.206679,-0.07602 -0.305317,-0.07638 -0.164398,-7.64e-4 -0.31461,0.04237 -0.457985,0.101839 -0.18302,0.0742 -0.360856,0.197477 -0.508886,0.305318 -0.125117,0.09111 -0.313065,0.276438 -0.445274,0.34858 l -0.358746,0.04819 c 0.02982,-0.08311 -0.03601,-0.246723 -0.01455,-0.346035 0.284132,-1.36919 0.786907,-6.010743 0.764194,-8.282991 -0.05201,-5.179937 1.499198,-7.239578 -2.245025,-11.765167 -0.94132,-1.137761 -2.373451,-2.472071 -3.60283,-3.320427 0.647314,0.168944 1.150454,0.244214 1.877712,0.603015 -1.599273,-1.292175 -3.018838,-1.997447 -4.218557,-2.61561 0.577446,0.08911 1.314579,0.276002 1.915921,0.371494 -3.877523,-1.916739 -6.519284,-2.141785 -9.055368,-2.124527 l -0.641205,0.06874 c -1.115756,0.0073 -1.571541,0.06729 -2.371305,0.23663 -2.500095,-0.111841 -6.010579,-0.421432 -9.543868,1.292502 0.500029,-0.02801 0.923716,-0.04692 1.323071,-0.05092 -1.582416,0.737515 -3.344523,1.689347 -5.320274,3.826713 0.447128,-0.245323 0.839063,-0.45733 1.221287,-0.636076 -1.508855,1.425093 -3.1866,3.681434 -3.994693,5.745222 -0.886054,2.262955 -0.691178,12.237585 -0.346053,13.968595 0.318357,1.596619 0.01273,2.632868 -0.02146,2.771533 -0.01273,-0.0073 -0.01273,-0.01964 -0.02546,-0.02546 -0.227829,-0.109477 -0.582738,-0.233139 -0.856867,-0.110386 -0.27202,0.144029 -0.370676,0.398572 -0.424015,0.669555 -0.09693,0.447728 0.01273,0.870015 0.10184,1.272025 0.142211,0.670774 0.311391,1.323872 0.46635,1.832103 0.05656,0.18522 0.127117,0.37124 0.195185,0.585211 0.06747,0.210789 0.128027,0.435872 0.161124,0.678449 0.03328,0.242541 0.0471,0.517106 0.06783,0.771849 0.01873,0.234648 0.01273,0.446074 0.03383,0.67843 0.01455,0.170399 0.01818,0.343125 0.05928,0.508887 0.0451,0.17349 0.114387,0.317392 0.202114,0.454784 0.0073,0.01091 0.01891,0.04055 0.02546,0.05092 0.01818,0.141119 0.166579,0.339906 0.169125,0.647824 0.0018,0.238539 0.08475,0.520325 0.05983,0.796563 -0.02437,0.27622 -0.0642,0.547203 -0.101839,0.806384 -0.02764,0.187075 -0.0491,0.365438 -0.05474,0.526508 -0.0055,0.114751 0.0091,0.250742 0.02546,0.381642 0.03637,0.304444 0.133845,0.585193 0.319047,0.867087 0.108568,0.167671 0.04746,0.177855 0.226992,0.265564 0.153486,0.07329 0.29206,0.125662 0.442346,0.144757 0.195367,0.02528 0.39288,0.05165 0.551949,0.101839 0.217572,0.06856 0.377896,0.116569 0.548458,0.250524 0.235831,0.185183 0.435726,0.313191 0.775396,0.562279 0.0271,0.08547 0.08311,0.152031 0.110932,0.244577 0.09475,0.314829 0.241613,0.702727 0.407101,1.06862 0.251798,0.556041 0.607816,1.185371 0.94203,1.764526 l 0.01273,0.270692 c 1.268515,5.640467 0.361965,10.261998 -2.083373,13.779102 4.216557,8.626298 10.85461,7.846483 16.715105,8.133088 5.747343,0.281057 14.454113,-4.752413 13.868229,-8.183972 -1.970987,-3.341358 -2.358775,-8.036068 -1.81641,-12.174172 0.152759,-1.127049 0.272202,-1.570577 0.54424,-2.145895 0.249687,-0.553586 0.416812,-0.862777 0.651642,-1.349368 0.32414,-0.673356 0.498521,-1.358188 0.610653,-1.933706 0.01637,-0.08129 0.03637,-0.183456 0.06965,-0.286441 0.09911,-0.0702 0.2233,-0.1333 0.282712,-0.17149 0.175127,-0.11275 0.433889,-0.266018 0.737879,-0.381642 0.09002,-0.03383 0.183019,-0.06529 0.279894,-0.127298 0.103839,-0.06856 0.186893,-0.180219 0.254416,-0.279876 0.185347,-0.269055 0.305608,-0.575373 0.356218,-0.890546 0.04728,-0.301281 0.09947,-0.562298 0.09002,-0.792636 -8.19e-4,-0.02691 8e-4,-0.04819 0,-0.07638 -0.01273,-0.298225 -0.09675,-0.681122 -0.06474,-1.043196 0.03146,-0.357928 0.106749,-0.71251 0.178219,-0.966872 0.07129,-0.254324 0.119297,-0.322829 0.166761,-0.452911 l -1.8e-5,3.7e-5 0,1.8e-5 -3.6e-5,0 7.2e-5,0 -3.6e-5,0 z"
     id="path6671"
     style="color:#000000;fill:#87aade;fill-opacity:1;fill-rule:nonzero;stroke:none;marker:none;visibility:visible;display:inline;overflow:visible;enable-background:accumulate" />
  <path
     d="m 39.313294,14.826125 c -1.115774,0.0073 -2.075371,0.110386 -2.875136,0.279875 -2.672003,-0.326703 -6.883704,-0.187765 -10.253814,1.730192 0.50003,-0.02801 0.923717,-0.0471 1.323072,-0.05092 -1.582416,0.737497 -3.392879,2.009959 -5.36863,4.147325 0.447147,-0.245323 0.864505,-0.457331 1.246747,-0.636095 -1.508873,1.425093 -2.728578,3.152162 -3.53669,5.215968 -0.886054,2.262955 -0.599559,12.237585 -0.254434,13.968595 0.318357,1.596637 0.110568,2.53292 0.07638,2.671603 -0.01273,-0.0073 -0.01273,-0.01946 -0.02546,-0.02546 -0.227847,-0.109477 -0.540038,-0.198968 -0.814204,-0.07638 -0.272019,0.14403 -0.379223,0.441436 -0.432525,0.712419 -0.09693,0.447746 0.01273,0.895638 0.101839,1.29763 0.142211,0.67081 0.328468,1.298267 0.483427,1.806516 0.05656,0.18522 0.110204,0.396664 0.178036,0.610653 0.06747,0.210789 0.119479,0.444419 0.152577,0.686977 0.03328,0.242559 0.05565,0.483118 0.07638,0.737861 0.01873,0.234666 0.03037,0.48008 0.05092,0.712419 0.01455,0.170399 0.03437,0.343143 0.07638,0.508886 0.0451,0.173491 0.115842,0.320593 0.203551,0.457985 0.0073,0.01091 0.01855,0.01455 0.02546,0.02546 0.01818,0.14112 0.131118,0.353618 0.134027,0.661536 0.0018,0.238558 0.07674,0.512523 0.05201,0.788762 -0.02437,0.27622 -0.0642,0.555023 -0.101839,0.814203 -0.02764,0.187075 -0.04546,0.373259 -0.05092,0.53431 -0.0055,0.114751 0.01091,0.225301 0.02546,0.356219 0.03637,0.304444 0.07911,0.589757 0.264309,0.871651 0.108568,0.167671 0.217681,0.241777 0.397082,0.329541 0.153486,0.07329 0.394153,0.152395 0.544439,0.171489 0.195349,0.02528 0.400682,0.05165 0.559733,0.10184 0.21759,0.06856 0.369185,0.154759 0.483444,0.228992 -0.108204,-0.08202 -0.272765,-0.196077 -0.483444,-0.279876 -0.160579,-0.06329 -0.34027,-0.11475 -0.534292,-0.152758 -0.146939,-0.02983 -0.393572,-0.09984 -0.518997,-0.17149 -0.147485,-0.0802 -0.227265,-0.147849 -0.320757,-0.304081 -0.158396,-0.269873 -0.186693,-0.517106 -0.213408,-0.795345 -0.01928,-0.190803 -0.01273,-0.396499 0,-0.559751 0.0073,-0.09766 0.01455,-0.190421 0.02546,-0.305317 0.02564,-0.246869 0.0451,-0.535965 0.05092,-0.814204 0.0055,-0.278257 -0.08074,-0.544239 -0.10293,-0.788762 -0.02528,-0.279603 -0.153123,-0.485299 -0.184875,-0.636094 0.07493,0.109113 0.153486,0.21348 0.228993,0.305317 0.2217,0.27102 0.393371,0.490701 0.508868,0.661536 0.115478,0.170762 0.178036,0.279876 0.178036,0.279876 0,0 -0.04546,-0.103476 -0.152758,-0.279876 -0.107113,-0.1764 -0.272602,-0.430106 -0.483427,-0.712419 -0.08511,-0.114387 -0.200204,-0.219991 -0.279875,-0.3562 -0.07965,-0.13621 -0.144394,-0.295243 -0.178037,-0.458003 -0.03328,-0.156032 -0.04219,-0.336451 -0.05092,-0.508869 -0.01273,-0.229956 -0.01455,-0.448783 -0.02546,-0.686977 -0.01091,-0.24976 -0.02382,-0.513651 -0.05092,-0.76332 -0.02691,-0.249652 -0.0591,-0.47999 -0.127299,-0.712401 -0.103657,-0.352127 -0.194749,-0.699635 -0.279857,-0.992313 -0.121116,-0.416413 -0.263563,-0.887164 -0.381679,-1.399415 -0.02673,-0.119115 -0.04946,-0.235102 -0.07638,-0.3562 0.07383,0.18853 0.165125,0.282003 0.305317,0.432543 0.37435,0.40201 0.636095,0.02546 0.636095,0.02546 0.305244,0.235958 0.82666,0.982438 1.730173,2.97692 -0.06838,-0.135482 -0.186093,-0.187547 -0.305335,-0.254434 -0.218136,-0.122388 -0.649497,0.08511 -0.68696,0.407084 -0.0651,0.559478 0.378751,2.085719 0.432544,1.781057 0.04037,-0.228556 -0.243741,-0.99475 -0.07638,-1.348514 0.08711,-0.18411 0.440254,-0.232866 0.712438,-0.127299 0.07183,0.02801 0.04546,-0.174399 0,-0.305335 -0.0012,-0.0055 0.0012,-0.02164 0,-0.02546 -0.696889,-1.860273 -1.342058,-3.159794 -1.882841,-3.791124 -0.320266,-0.373894 -0.65759,-0.570171 -0.814186,-0.559751 -0.06347,0.0055 -0.103294,0.113114 -0.127299,0.203551 -8e-4,-0.09802 0.0055,-0.183601 0.02546,-0.279876 0.05619,-0.25527 0.141847,-0.529927 0.3562,-0.636094 0.202351,-0.11275 0.466987,-0.05183 0.686978,0.05092 0.94894,0.442818 1.244437,1.097152 1.67929,1.895571 0.213862,0.392626 0.668356,1.664178 0.9287,2.709738 -0.131482,-1.121667 -0.448401,-2.077754 -0.55977,-2.417151 l 1.463028,0.02546 c 0.01273,0.290678 0.03619,0.577264 0.101839,0.865087 0.103112,0.459785 0.325049,0.91877 0.686996,1.246746 0.486336,0.429289 1.1101,0.605707 1.704713,0.763303 0.96478,0.261617 1.956548,0.379768 2.951479,0.38166 1.309433,0.0036 2.624412,-0.09238 3.918332,-0.305317 0.459167,-0.07547 0.922808,-0.167671 1.373955,-0.305336 0.151304,-0.04601 0.308954,-0.08165 0.457985,-0.152758 0.09093,-0.04001 0.193021,-0.104567 0.279894,-0.203551 0.238976,-0.29597 0.348998,-0.655626 0.432543,-0.992295 0.100748,-0.390953 0.15585,-0.781979 0.228992,-1.170404 0.05074,-0.27251 0.0411,-0.574263 -0.02546,-0.839645 0.759065,-0.569299 1.682345,-0.635567 2.137275,-0.636094 0.473479,-5.1e-4 1.266332,0.172944 2.010049,0.559751 0.0012,0.109659 0.0055,0.222518 0.02546,0.330777 0.0782,0.387425 0.173853,0.780833 0.279875,1.170422 0.08802,0.335524 0.189657,0.699526 0.432544,0.992295 0.0882,0.09784 0.188438,0.164761 0.279893,0.203551 0.150031,0.06911 0.306191,0.108749 0.457985,0.152576 0.452966,0.131664 0.913824,0.210607 1.373955,0.279894 1.29663,0.195786 2.609063,0.27482 3.918332,0.254434 0.994804,-0.01455 1.990245,-0.132754 2.95146,-0.407101 0.592486,-0.165489 1.224161,-0.378496 1.704732,-0.814204 0.357565,-0.332759 0.564553,-0.785616 0.661536,-1.246729 0.06238,-0.29146 0.09457,-0.59694 0.101839,-0.890546 l 2.008722,-0.432525 c -0.229175,0.446582 -0.426942,1.131959 -0.609325,1.857381 0.260617,-0.705527 0.67703,-1.562775 0.941429,-2.010049 0.06601,-0.111841 0.235503,-0.37826 0.407084,-0.53431 0.172217,-0.15585 0.36753,-0.310827 0.585211,-0.458003 0.150031,-0.10093 0.311937,-0.19213 0.483426,-0.254434 0.225265,-0.07638 0.48219,-0.166034 0.661536,-0.05092 0.11857,0.06129 0.20557,0.185857 0.254453,0.330778 -0.05165,-0.02492 -0.12439,-0.02673 -0.20357,-0.02546 -0.186092,0.0036 -0.455966,0.08438 -0.763302,0.330777 -0.626819,0.502266 -1.180533,1.609585 -2.03549,4.325433 -0.01273,0.04074 -0.01273,0.08565 -0.02546,0.127299 -0.01091,0.07383 0.0018,0.169489 0.05092,0.152759 0.446383,-0.156578 0.783798,-0.0055 0.839646,0.356218 0.0591,0.382843 -0.418923,1.060564 -0.305318,1.144963 0.11657,0.08656 0.27613,-0.277912 0.407084,-0.585211 0.148394,-0.348017 0.269619,-0.659336 0.254452,-0.94143 -0.03619,-0.67101 -0.545876,-1.01419 -0.966853,-0.610634 0.980656,-2.489821 1.416927,-3.041443 1.730155,-3.256796 0,0 0.126935,0.302734 0.585211,0 0.202351,-0.133664 0.412394,-0.293315 0.508868,-0.508869 0.02073,0.340143 -0.04146,0.680231 -0.101839,1.017737 -0.124571,0.685741 -0.309318,1.316361 -0.483444,1.831958 -0.05328,0.157668 -0.11366,0.329722 -0.178037,0.508868 -0.08002,0.223318 -0.130754,0.459949 -0.178036,0.712419 -0.04728,0.252488 -0.09329,0.528272 -0.127299,0.788762 -0.03182,0.241613 -0.04456,0.475552 -0.07638,0.712419 -0.02364,0.173854 -0.05801,0.352181 -0.101839,0.508886 -0.04237,0.159851 -0.124934,0.284113 -0.228992,0.407084 -0.104022,0.122934 -0.223046,0.254888 -0.330777,0.356218 -0.131845,0.122571 -0.253434,0.223373 -0.356219,0.330777 -0.102748,0.107477 -0.188839,0.195077 -0.254434,0.279876 0.06783,-0.0782 0.177673,-0.157123 0.279876,-0.254434 0.107113,-0.102021 0.21859,-0.213389 0.356218,-0.330777 0.112387,-0.09529 0.243123,-0.206861 0.356219,-0.330777 0.113114,-0.123844 0.221646,-0.255962 0.279876,-0.432525 0.05256,-0.163852 0.07201,-0.33656 0.101839,-0.508887 0.04092,-0.235594 0.08729,-0.471787 0.127299,-0.712419 0.04237,-0.25347 0.07492,-0.518452 0.127298,-0.763302 0.05237,-0.244868 0.120207,-0.469933 0.203551,-0.686977 0.119843,-0.313519 0.219845,-0.620528 0.305318,-0.890529 0.137119,-0.433143 0.266545,-0.952813 0.356218,-1.501199 0.06747,-0.405847 0.12839,-0.838954 0.05092,-1.27217 -0.04346,-0.269837 -0.130573,-0.570263 -0.38166,-0.712419 -0.09347,-0.04819 -0.206679,-0.07602 -0.305318,-0.07638 -0.164397,-7.64e-4 -0.31461,0.06765 -0.457985,0.127299 -0.183019,0.0742 -0.360856,0.172035 -0.508868,0.279875 -0.125116,0.09111 -0.221463,0.184838 -0.330777,0.279894 l -0.381678,0.05074 c 0.02982,-0.08311 0.05583,-0.180583 0.07638,-0.279894 0.284131,-1.369172 1.040487,-5.920634 1.017736,-8.192864 -0.05183,-5.179955 1.199847,-7.331196 -2.544377,-11.856785 -0.94132,-1.137761 -2.052839,-2.153988 -3.282219,-3.002344 0.647333,0.168944 1.333656,0.429961 2.060932,0.788744 -1.599273,-1.292157 -2.973046,-2.180648 -4.172765,-2.798811 0.577445,0.08911 1.154255,0.184401 1.755615,0.279893 -3.877506,-1.916739 -7.183421,-2.48531 -9.719505,-2.468052 l 3.6e-5,0 z m 6.004724,9.490517 c 1.353733,0.0012 2.460996,0.289514 3.12957,1.170404 1.944945,2.562581 2.487965,4.444786 2.722486,6.615377 0.234503,2.170554 0.188039,3.760117 0.941412,4.961509 0.700689,1.11743 0.852265,4.481884 0.73786,5.419513 l -1.501181,0.152759 c -0.07402,-0.1293 -0.14603,-0.228884 -0.254434,-0.330777 -0.329504,-0.307536 -0.746299,-0.502613 -1.144962,-0.661536 -0.683613,-0.274893 -1.418691,-0.398355 -2.137275,-0.483427 -0.614163,-0.07329 -1.214668,-0.11766 -1.83194,-0.127299 -0.489301,-0.0073 -0.995023,0.02837 -1.47574,0.07638 -0.583756,0.05801 -1.152018,0.131845 -1.730173,0.228974 -0.533619,0.08966 -1.076639,0.190676 -1.602947,0.330777 -0.202587,0.05383 -0.410612,0.128754 -0.610653,0.203551 -0.137483,0.05037 -0.272765,0.110568 -0.407102,0.203551 -0.329958,0.232466 -0.567352,0.558478 -0.686977,0.941411 -0.03164,0.10093 -0.06038,0.200132 -0.07638,0.305318 -0.608725,-0.307154 -1.452571,-0.487755 -2.111834,-0.483427 -0.68214,0.0055 -1.69122,0.255143 -2.162717,0.585211 -0.137119,-0.307681 -0.356309,-0.597141 -0.636094,-0.788762 -0.135482,-0.09111 -0.29446,-0.129481 -0.432543,-0.178036 -0.201005,-0.0722 -0.407393,-0.126936 -0.610653,-0.178037 -0.528145,-0.133118 -1.042741,-0.248233 -1.577506,-0.330759 -0.57941,-0.08947 -1.171149,-0.153486 -1.755633,-0.203569 -0.481299,-0.04146 -0.961124,-0.06474 -1.450279,-0.05092 -0.617091,0.01819 -1.244238,0.04583 -1.8574,0.127298 -0.717384,0.09456 -1.431912,0.250361 -2.111815,0.534328 -0.396518,0.164216 -0.819587,0.349654 -1.144981,0.661536 -0.207643,0.200369 -0.346926,0.453748 -0.407084,0.737861 l -0.890528,-0.05092 C 22.032,43.12092 21.431367,41.324879 21.578979,40.320927 c 0.144757,-0.984893 0.827043,-0.993367 0.91597,-2.417169 0.08893,-1.423801 -0.256198,-6.653202 0.178037,-8.116539 0.434307,-1.463337 2.359375,-4.441839 4.070999,-4.961509 2.959244,-0.898512 5.375358,0.834716 9.694045,0.661535 2.834128,-0.113659 6.29542,-1.173786 8.87986,-1.170422 l -3.7e-5,3.7e-5 z M 45.241638,41.2876 c 0.238212,-0.01455 0.475661,-0.0055 0.712419,0 0.609852,0.0091 1.227488,0.02946 1.831958,0.101839 0.709545,0.08547 1.410726,0.220008 2.060932,0.483426 0.388334,0.15876 0.780578,0.336033 1.068637,0.610653 0.225847,0.213735 0.376951,0.511014 0.381642,0.814185 0.0091,0.415813 -0.01637,0.824588 -0.101839,1.221305 -0.09402,0.425633 -0.274747,0.838609 -0.585192,1.119521 -0.421305,0.392772 -0.992495,0.592285 -1.577524,0.763321 -0.935411,0.267673 -1.92305,0.366184 -2.900578,0.38166 -1.297412,0.02 -2.586313,-0.03546 -3.86743,-0.228993 -0.455421,-0.06892 -0.912515,-0.152576 -1.348532,-0.279894 -0.146393,-0.04292 -0.300534,-0.09129 -0.432543,-0.152576 -0.08511,-0.04274 -0.165852,-0.07674 -0.203551,-0.127299 -0.203787,-0.233812 -0.288132,-0.559824 -0.38166,-0.890528 -0.01273,-0.04492 -0.01455,-0.107477 -0.02528,-0.152759 0.03164,-0.09002 0.02055,-0.23994 0,-0.432543 0.135482,-0.06911 0.212025,-0.225974 0.178037,-0.381661 -0.03437,-0.157668 -0.176218,-0.276075 -0.330759,-0.279875 -0.03619,-0.100203 -0.06256,-0.189421 -0.101839,-0.254434 1.45e-4,-0.01819 -7.64e-4,-0.03273 0,-0.05092 l 0,-0.07638 c 0.01091,-0.130027 0.03764,-0.256798 0.07638,-0.38166 0.103658,-0.331487 0.327886,-0.616691 0.610653,-0.814186 0.101839,-0.07292 0.223427,-0.127299 0.356218,-0.178036 0.188603,-0.07074 0.386734,-0.125117 0.585211,-0.178037 0.515306,-0.137301 1.022628,-0.241668 1.552064,-0.330759 0.572936,-0.09638 1.152346,-0.171671 1.730156,-0.22901 0.238776,-0.02364 0.474224,-0.0611 0.712419,-0.07638 l 0,-7.2e-5 z m -16.589297,0.636094 c 0.118388,-0.0036 0.237467,-0.0012 0.3562,0 0.356237,0.0055 0.710073,0.04583 1.068638,0.07638 0.578518,0.04965 1.156001,0.114751 1.730173,0.203551 0.530564,0.08202 1.060418,0.174763 1.577506,0.305317 0.199168,0.05037 0.395681,0.109841 0.585211,0.178037 0.133482,0.04892 0.253397,0.106567 0.356218,0.178036 0.285368,0.193731 0.502558,0.4841 0.610635,0.814186 0.05383,0.165852 0.09748,0.335687 0.101839,0.508886 -0.03819,0.06547 -0.09238,0.154032 -0.127299,0.254434 -0.156214,0.0055 -0.298188,0.120207 -0.330777,0.279894 -0.03146,0.154031 0.0702,0.287586 0.203551,0.3562 -0.01855,0.194677 -0.0073,0.36773 0.02546,0.457985 -0.01091,0.04692 -0.03892,0.08074 -0.05092,0.127299 -0.08911,0.331905 -0.180946,0.679467 -0.38166,0.91597 -0.03692,0.0511 -0.09365,0.08311 -0.178036,0.127299 -0.131118,0.0631 -0.286623,0.10784 -0.432544,0.152758 -0.434289,0.133119 -0.868615,0.204824 -1.323071,0.279894 -1.278427,0.210589 -2.595333,0.3081 -3.892872,0.305318 -0.977674,-0.0018 -1.936253,-0.10093 -2.875154,-0.356201 -0.587248,-0.163306 -1.201902,-0.350745 -1.628389,-0.737879 -0.314174,-0.276747 -0.4855,-0.669737 -0.585211,-1.094079 -0.09147,-0.395536 -0.10584,-0.830843 -0.101839,-1.246747 7.63e-4,-0.303226 0.1333,-0.597468 0.356218,-0.814203 0.284368,-0.278421 0.65699,-0.446801 1.043196,-0.610635 0.646624,-0.272019 1.352569,-0.413812 2.060932,-0.508886 0.603452,-0.08038 1.22227,-0.135119 1.83194,-0.152759 l 3.7e-5,5.5e-5 z"
     id="path6685"
     style="fill:#87aade;stroke:none" />
  <path
     d="m 30.752738,62.983572 c 0,0 2.874088,4.557482 7.062044,4.680657 4.187956,0.123175 8.293796,-4.803832 8.293796,-4.803832 0,0 -3.161497,5.091241 -7.801095,5.091241 -4.639599,0 -7.554745,-4.968066 -7.554745,-4.968066 z"
     id="path3158"
     style="fill:#3062ad;fill-opacity:1;stroke:none" />
</svg>
